<?xml version="1.0" encoding="UTF-8"?>
<svg width="147px" height="150px" viewBox="0 0 147 150" version="1.1" xmlns="http://www.w3.org/2000/svg" xmlns:xlink="http://www.w3.org/1999/xlink">
    <!-- Generator: Sketch 51.3 (57544) - http://www.bohemiancoding.com/sketch -->
    <title>Combined Shape</title>
    <desc>Created with Sketch.</desc>
    <defs>
        <path d="M65.9504028,147.031737 C21.7766101,132.646264 3.09636252e-15,123.61675 0,73.325624 C0,23.034498 30.1035971,10.9641102 77.4118641,1.2662066 C124.720131,-8.43169699 145.040974,39.6967907 146.547249,73.325624 C148.053524,106.954457 110.124196,161.41721 65.9504028,147.031737 Z M51.697697,33.3053414 C51.1944824,33.0308185 50.6122117,32.9375651 50.0484327,33.0412039 C48.6904802,33.2908347 47.792008,34.5940385 48.0416293,35.9519927 C50.3005357,48.2400881 52.0663067,60.5991404 53.3389425,73.0291496 C54.6118368,85.4616827 55.3768598,97.8232302 55.6340116,110.113792 C55.6457361,110.674162 55.8454274,111.214337 56.2010228,111.647585 C57.0769954,112.714847 58.6522983,112.869918 59.7195603,111.993945 L104.463815,75.269367 L116.631018,73.9098831 C117.441795,73.8192922 118.157369,73.3387976 118.548074,72.6226163 C119.209309,71.4105382 118.762763,69.8919178 117.550685,69.2306825 L51.697697,33.3053414 Z" id="path-1"></path>
    </defs>
    <g id="Page-1" stroke="none" stroke-width="1" fill="none" fill-rule="evenodd">
        <g id="Path-2">
            <mask id="mask-2" fill="white">
                <use xlink:href="#path-1"></use>
            </mask>
            <use id="play-button" fill="#FFFFFF" xlink:href="#path-1"></use>
        </g>
    </g>
</svg>