<?xml version="1.0" encoding="UTF-8"?>
<svg class="play-button-size" viewBox="0 0 74 75" version="1.1" xmlns="http://www.w3.org/2000/svg" xmlns:xlink="http://www.w3.org/1999/xlink">
    <defs></defs>
    <g class="play-elem" stroke="none" stroke-width="1" fill="none" fill-rule="evenodd">
        <g id="Desktop-HD-Copy" transform="translate(-683.000000, -505.000000)" class="play-fill" fill="#FFFFFF">
            <path d="M741.685861,545.256309 C741.097568,546.380738 739.409396,546.861482 738.348423,546.139693 C738.014702,545.912563 737.680758,545.685657 737.347037,545.458527 C736.967737,545.686106 736.595996,545.9276 736.233149,546.183458 C736.027269,546.328444 735.825391,546.478592 735.623735,546.629638 C735.619955,546.632332 735.616843,546.634801 735.613285,546.637494 C735.607727,546.642207 735.602169,546.64692 735.595277,546.652531 C735.498784,546.734002 735.398957,546.811657 735.30113,546.89223 C734.909825,547.215868 734.527412,547.550279 734.151447,547.892096 C731.245113,550.534167 728.63626,553.455213 725.562509,555.915714 C722.291105,558.534892 718.801814,560.83133 715.061732,562.71054 C713.429587,563.530408 711.404357,562.542213 711.39124,560.584225 C711.373898,558.006119 711.293858,555.428686 711.144895,552.854619 C711.011273,550.546062 710.824069,548.240422 710.583505,545.940393 C710.465224,544.809231 710.334047,543.67964 710.190198,542.551396 C710.168187,542.380824 710.146176,542.210252 710.12372,542.03968 C710.120608,542.017461 710.117495,541.993446 710.113715,541.96584 C710.077475,541.703025 710.041235,541.440209 710.004105,541.177394 C709.929624,540.651987 709.852474,540.127029 709.772435,539.602296 C709.081202,535.067773 708.178086,530.567814 707.075538,526.116782 C706.626426,524.303108 708.250567,522.58841 710.076141,523.087782 C712.588502,523.774783 714.996366,524.861058 717.268385,526.134512 C721.249031,528.365864 724.961099,531.104442 728.73253,533.670205 C731.860308,535.798091 734.988086,537.925977 738.115641,540.053638 C738.806651,540.135782 739.434964,540.509469 739.884076,541.21263 C739.899417,541.236869 739.913646,541.261782 739.928098,541.286694 C740.222467,541.487116 740.516613,541.68709 740.810759,541.887287 C741.942878,542.657555 742.336851,544.012929 741.685861,545.256309 M756.580053,535.301446 C755.379453,528.645559 751.565825,522.910686 747.84828,517.407956 C744.504121,512.457567 740.733172,507.180754 735.206349,505.576208 C732.955086,504.922693 730.582937,504.945596 728.252349,505.068117 C722.281307,505.381643 716.339536,506.318444 710.539657,507.861174 C710.539657,507.861174 706.713739,508.590068 698.107099,512.602768 C689.500236,516.615244 684.465228,528.772082 683.257701,539.394861 C682.647905,544.758172 683.035815,550.396096 685.338248,555.211069 C688.319747,561.445584 694.066445,565.545893 699.571817,569.367807 C706.492523,574.172106 713.783487,579.118048 722.013836,579.896529 C729.982078,580.650105 738.040594,577.230216 743.962924,571.50735 C749.885478,565.784484 753.771951,557.926967 755.759766,549.680766 C756.890425,544.991205 757.437879,540.055936 756.580053,535.301446" id="Fill-1"></path>
        </g>
    </g>
</svg>